<svg width="132" height="45" viewBox="0 0 132 45" fill="none" xmlns="http://www.w3.org/2000/svg">
<path d="M5.43136 18.0652L4.75792 16.4305C4.31571 15.1786 3.85502 13.971 4.51498 12.4489C4.79781 11.7072 5.6723 10.1703 8.69024 8.927C10.1049 8.34421 11.0314 8.18317 12.2538 7.93699L14.0798 12.3696C13.6822 12.3863 13.3604 12.4086 12.7946 12.6417C11.0341 13.3669 11.5577 14.5486 11.9074 15.3974L14.831 14.1929L16.2815 17.7139L13.3578 18.9183L18.4605 31.3044L11.9845 33.9723L6.88185 21.5861L4.46121 22.5834L3.01072 19.0624L5.43136 18.0652ZM32.7932 20.2967L39.0027 21.1202C37.8248 24.7136 35.3051 27.1198 31.2349 28.219C24.9327 29.9211 20.6239 26.2247 19.3473 21.498C17.8492 15.9508 20.7233 11.3357 26.2377 9.84645C28.3056 9.28797 31.1391 9.08624 33.7477 10.53C36.9072 12.3181 37.7024 15.1321 38.4684 17.7074L26.5861 20.9165C26.8228 21.6626 27.095 22.54 28.0538 23.0911C28.2623 23.2108 29.0544 23.6661 30.3017 23.3292C31.8444 22.9126 32.4762 21.8615 32.7932 20.2967ZM25.6855 17.321L30.6091 15.9913C30.5053 15.7375 30.4344 15.4749 30.2978 15.2301C29.6744 14.0954 28.4822 13.8539 27.5632 14.1021C25.5281 14.6517 25.6457 16.5217 25.6855 17.321ZM48.0097 6.86155L48.1521 9.37351C48.6452 8.46014 49.7159 6.32209 53.5517 6.1046C54.1627 6.06995 55.151 6.08202 56.2565 6.35989C58.5713 6.94378 59.3214 8.16127 59.8486 9.05085C60.2923 7.86783 61.7665 5.6388 65.7721 5.41168C67.673 5.3039 69.5407 5.81098 70.7603 6.89968C72.4443 8.37071 72.586 10.2697 72.7143 11.9311L73.3437 23.0313L66.3509 23.4278L65.8293 14.2286C65.7658 13.1084 65.6241 11.2094 63.2139 11.346C60.668 11.4904 60.7515 13.563 60.7957 14.3437L61.3289 23.7466L54.3361 24.1431L53.7972 14.6384C53.778 14.2989 53.7248 13.9614 53.6376 13.6258C53.2551 12.2853 52.0459 11.9793 51.1972 12.0274C50.4844 12.0678 49.785 12.3458 49.3367 12.848C48.7283 13.5296 48.7687 14.2424 48.7694 14.8554L49.3122 24.428L42.3194 24.8245L41.3224 7.24073L48.0097 6.86155ZM84.3448 11.7871L77.8315 10.9716C78.3246 9.53327 78.9747 7.74045 81.661 6.80657C83.7636 6.09368 86.2767 6.30273 88.092 6.57794C96.3615 7.83164 95.7142 12.1009 95.3983 14.185L93.9611 23.6647C93.7878 24.8077 93.8428 25.1255 94.24 25.9079L87.416 24.8733L87.6198 23.5287C86.6541 24.0013 84.8672 24.8996 81.6065 24.4052C77.2364 23.7427 75.7229 20.7965 76.1714 17.8383C76.3294 16.7963 76.7839 15.3864 78.2162 14.3312C80.0408 12.9572 81.964 12.9737 85.0843 13.034C87.0411 13.0556 87.8062 12.9996 88.8941 12.8551C89.0389 11.6734 88.825 10.8157 86.8417 10.515C85.2617 10.2755 84.7636 10.6126 84.3448 11.7871ZM88.2744 16.7158C87.5664 16.8492 86.8584 16.9826 86.1219 17.0773C85.5301 17.1251 84.9046 17.1678 84.2689 17.2778C82.8428 17.6118 82.6532 18.4084 82.6226 18.6101C82.5513 19.0807 82.8222 20.0159 84.1332 20.2146C85.108 20.3624 86.8184 19.9683 87.6274 18.7154C88.0757 18.0268 88.1827 17.3209 88.2744 16.7158ZM96.3532 26.3939L102.715 3.24821L109.501 5.11342L103.14 28.2591L96.3532 26.3939ZM119.888 27.8149L124.338 32.2231C121.228 34.3746 117.767 34.7694 113.859 33.1859C107.809 30.7341 106.609 25.1853 108.448 20.6477C110.606 15.3224 115.685 13.3817 120.979 15.5271C122.964 16.3316 125.344 17.8829 126.55 20.6095C127.987 23.9433 126.92 26.666 125.974 29.1809L114.568 24.5583C114.305 25.2958 113.992 26.1594 114.423 27.1778C114.517 27.3992 114.873 28.2405 116.07 28.7258C117.551 29.326 118.69 28.8702 119.888 27.8149ZM116.023 21.1491L120.749 23.0646C120.82 22.7997 120.922 22.5477 120.961 22.27C121.15 20.9892 120.346 20.0764 119.464 19.7188C117.51 18.9271 116.474 20.4882 116.023 21.1491Z" fill="black"/>
</svg>
