<svg preserveAspectRatio="none" overflow="visible" style="display: block;" width="290.741" height="32.3371" viewBox="0 0 290.741 32.3371" fill="none" xmlns="http://www.w3.org/2000/svg">
<g id="Bottom Buttons">
<path id="Vector" d="M16 0C12.8355 0 9.74207 0.938383 7.11088 2.69649C4.4797 4.45459 2.42894 6.95345 1.21793 9.87706C0.00693255 12.8007 -0.309921 16.0177 0.307443 19.1214C0.924806 22.2251 2.44866 25.0761 4.6863 27.3137C6.92394 29.5513 9.77486 31.0752 12.8786 31.6926C15.9823 32.3099 19.1993 31.9931 22.1229 30.7821C25.0466 29.5711 27.5454 27.5203 29.3035 24.8891C31.0616 22.2579 32 19.1645 32 16C31.9955 11.7579 30.3084 7.69085 27.3088 4.69124C24.3091 1.69163 20.2421 0.00447972 16 0ZM7.70462 26.6923C8.59498 25.2998 9.82155 24.1539 11.2713 23.3601C12.721 22.5663 14.3472 22.1502 16 22.1502C17.6528 22.1502 19.279 22.5663 20.7287 23.3601C22.1785 24.1539 23.405 25.2998 24.2954 26.6923C21.9236 28.5369 19.0047 29.5384 16 29.5384C12.9954 29.5384 10.0764 28.5369 7.70462 26.6923ZM11.0769 14.7692C11.0769 13.7955 11.3657 12.8437 11.9066 12.0341C12.4476 11.2245 13.2164 10.5935 14.116 10.2209C15.0156 9.84828 16.0055 9.75079 16.9604 9.94075C17.9154 10.1307 18.7926 10.5996 19.4811 11.2881C20.1696 11.9766 20.6385 12.8538 20.8285 13.8088C21.0184 14.7638 20.9209 15.7536 20.5483 16.6532C20.1757 17.5528 19.5447 18.3217 18.7351 18.8626C17.9255 19.4036 16.9737 19.6923 16 19.6923C14.6943 19.6923 13.4421 19.1736 12.5189 18.2504C11.5956 17.3271 11.0769 16.0749 11.0769 14.7692ZM26.1169 24.9861C24.7443 22.997 22.8141 21.4582 20.5692 20.5631C21.7751 19.6133 22.655 18.3114 23.0867 16.8383C23.5183 15.3652 23.4802 13.7943 22.9776 12.3439C22.475 10.8935 21.5329 9.63582 20.2824 8.74567C19.0318 7.85553 17.535 7.37719 16 7.37719C14.465 7.37719 12.9682 7.85553 11.7176 8.74567C10.4671 9.63582 9.52504 10.8935 9.02245 12.3439C8.51985 13.7943 8.48172 15.3652 8.91335 16.8383C9.34497 18.3114 10.2249 19.6133 11.4308 20.5631C9.18588 21.4582 7.25575 22.997 5.88308 24.9861C4.14857 23.0356 3.01489 20.6253 2.61854 18.0454C2.22219 15.4655 2.58008 12.826 3.64911 10.4448C4.71814 8.06354 6.45273 6.04212 8.64401 4.6239C10.8353 3.20568 13.3898 2.45115 16 2.45115C18.6102 2.45115 21.1647 3.20568 23.356 4.6239C25.5473 6.04212 27.2819 8.06354 28.3509 10.4448C29.4199 12.826 29.7778 15.4655 29.3815 18.0454C28.9851 20.6253 27.8514 23.0356 26.1169 24.9861Z" fill="#FD151B"/>
<path id="Vector_2" d="M116.692 9.96H112.077V5.32C112.077 4.7047 111.834 4.1146 111.401 3.67951C110.968 3.24443 110.381 3 109.769 3H91.3077C90.6957 3 90.1087 3.24443 89.6759 3.67951C89.2431 4.1146 89 4.7047 89 5.32V23.88C89.0007 24.0982 89.0626 24.3119 89.1786 24.4963C89.2946 24.6808 89.46 24.8286 89.6558 24.9228C89.8517 25.017 90.0699 25.0537 90.2856 25.0288C90.5013 25.0039 90.7055 24.9183 90.875 24.7819L95.9231 20.69V25.04C95.9231 25.6553 96.1662 26.2454 96.599 26.6805C97.0318 27.1156 97.6187 27.36 98.2308 27.36H111.729L117.125 31.7419C117.329 31.9079 117.584 31.999 117.846 32C118.152 32 118.446 31.8778 118.662 31.6602C118.878 31.4427 119 31.1477 119 30.84V12.28C119 11.6647 118.757 11.0746 118.324 10.6395C117.891 10.2044 117.304 9.96 116.692 9.96ZM95.137 18.3381L91.3077 21.4512V5.32H109.769V18.08H95.8625C95.5984 18.08 95.3423 18.1711 95.137 18.3381ZM116.692 28.4112L112.863 25.2981C112.659 25.1321 112.404 25.041 112.142 25.04H98.2308V20.4H109.769C110.381 20.4 110.968 20.1556 111.401 19.7205C111.834 19.2854 112.077 18.6953 112.077 18.08V12.28H116.692V28.4112Z" fill="#FD151B"/>
<path id="Vector_3" d="M195.731 3C193.055 3 190.762 5.36458 189.5 8.97005C188.238 5.36458 185.945 3 183.269 3C179.193 3 176 8.49089 176 15.5C176 22.5091 179.193 28 183.269 28C185.945 28 188.238 25.6354 189.5 22.0299C190.762 25.6354 193.055 28 195.731 28C199.807 28 203 22.5091 203 15.5C203 8.49089 199.807 3 195.731 3ZM186.764 23.1029C185.791 24.8906 184.518 25.9167 183.269 25.9167C182.02 25.9167 180.747 24.8906 179.775 23.1029C179.146 21.9072 178.698 20.6246 178.446 19.2969C179.078 19.5837 179.772 19.7069 180.465 19.6552C181.157 19.6034 181.826 19.3785 182.409 19.0008C182.992 18.6232 183.472 18.1049 183.804 17.4933C184.136 16.8817 184.31 16.1964 184.31 15.5C184.31 14.8036 184.136 14.1183 183.804 13.5067C183.472 12.8951 182.992 12.3768 182.409 11.9992C181.826 11.6215 181.157 11.3966 180.465 11.3448C179.772 11.2931 179.078 11.4163 178.446 11.7031C178.698 10.3754 179.146 9.09277 179.775 7.89714C180.747 6.10938 182.02 5.08333 183.269 5.08333C184.518 5.08333 185.791 6.10938 186.764 7.89714C187.858 9.91016 188.462 12.6107 188.462 15.5C188.462 18.3893 187.858 21.0898 186.764 23.1029ZM178.077 15.5C178.077 15.088 178.199 14.6852 178.427 14.3426C178.655 14 178.98 13.7329 179.359 13.5753C179.739 13.4176 180.156 13.3763 180.559 13.4567C180.962 13.5371 181.332 13.7355 181.622 14.0269C181.913 14.3182 182.111 14.6894 182.191 15.0936C182.271 15.4977 182.23 15.9166 182.073 16.2973C181.915 16.6779 181.649 17.0033 181.308 17.2322C180.966 17.4611 180.565 17.5833 180.154 17.5833C179.603 17.5833 179.075 17.3638 178.685 16.9731C178.296 16.5824 178.077 16.0525 178.077 15.5ZM199.225 23.1029C198.253 24.8906 196.98 25.9167 195.731 25.9167C194.482 25.9167 193.209 24.8906 192.236 23.1029C191.608 21.9072 191.16 20.6246 190.907 19.2969C191.54 19.5837 192.234 19.7069 192.926 19.6552C193.619 19.6034 194.287 19.3785 194.87 19.0008C195.454 18.6232 195.933 18.1049 196.266 17.4933C196.598 16.8817 196.772 16.1964 196.772 15.5C196.772 14.8036 196.598 14.1183 196.266 13.5067C195.933 12.8951 195.454 12.3768 194.87 11.9992C194.287 11.6215 193.619 11.3966 192.926 11.3448C192.234 11.2931 191.54 11.4163 190.907 11.7031C191.16 10.3754 191.608 9.09277 192.236 7.89714C193.209 6.10938 194.482 5.08333 195.731 5.08333C196.98 5.08333 198.253 6.10938 199.225 7.89714C200.319 9.91016 200.923 12.6107 200.923 15.5C200.923 18.3893 200.319 21.0898 199.225 23.1029ZM190.538 15.5C190.538 15.088 190.66 14.6852 190.888 14.3426C191.117 14 191.441 13.7329 191.821 13.5753C192.2 13.4176 192.618 13.3763 193.021 13.4567C193.423 13.5371 193.794 13.7355 194.084 14.0269C194.374 14.3182 194.572 14.6894 194.652 15.0936C194.733 15.4977 194.691 15.9166 194.534 16.2973C194.377 16.6779 194.111 17.0033 193.769 17.2322C193.428 17.4611 193.026 17.5833 192.615 17.5833C192.065 17.5833 191.536 17.3638 191.147 16.9731C190.757 16.5824 190.538 16.0525 190.538 15.5Z" fill="#FD151B"/>
<g id="Vector_4">
</g>
<g id="heart">
<path id="Vector_5" d="M285.653 13.486C287.073 14.2114 288.147 15.4703 288.64 16.9863C289.132 18.5024 289.002 20.1523 288.28 21.5733L288.13 21.8508C286.523 24.6766 283.053 26.1637 279.944 26.9506C276.723 27.766 273.819 27.8473 273.575 27.8511L273.575 27.8498C273.418 27.8531 273.264 27.8183 273.124 27.7472C272.984 27.676 272.865 27.5712 272.775 27.4423C272.633 27.24 270.993 24.8443 269.761 21.7607C268.532 18.6869 267.681 14.8627 269.213 11.8559L269.356 11.5941C270.097 10.3046 271.292 9.33138 272.714 8.86969C274.23 8.37726 275.88 8.50682 277.301 9.22902L277.627 9.40623C279.141 10.2844 280.164 11.6634 280.515 13.2456C282.106 12.5546 283.96 12.6229 285.653 13.486ZM284.497 15.0415C283.018 14.4083 281.44 14.616 280.304 15.5945C280.161 15.7171 279.985 15.7944 279.798 15.8169C279.658 15.8337 279.516 15.8186 279.383 15.7739L279.254 15.7201C279.086 15.6346 278.947 15.5007 278.855 15.3362C278.764 15.1718 278.723 14.9839 278.738 14.7963C278.869 13.2051 277.998 11.7172 276.438 10.9222C275.466 10.4285 274.338 10.3403 273.301 10.6771C272.264 11.0139 271.403 11.7481 270.906 12.7188C269.805 14.8808 270.312 17.7692 271.265 20.3703C272.178 22.8609 273.478 25.0305 274.05 25.9283C275.111 25.8624 277.632 25.6393 280.186 24.9133C282.851 24.1555 285.487 22.869 286.587 20.7104C287.081 19.7383 287.169 18.6103 286.832 17.5734C286.495 16.5365 285.761 15.6756 284.79 15.1792L284.497 15.0415Z" fill="#FD151B" stroke="#FD151B" stroke-width="0.4"/>
<path id="Vector_6" d="M275.188 3.79965C276.782 3.80145 278.31 4.43522 279.438 5.56235C280.565 6.68947 281.198 8.21838 281.2 9.81235C281.2 11.717 280.55 12.9805 279.425 14.5575L279.149 14.9422L279.064 14.4764L278.803 13.035L278.791 12.9657L278.824 12.9041C279.342 11.9513 279.3 10.9111 279.3 9.81235L279.295 9.60825C279.243 8.59234 278.816 7.62881 278.094 6.9061C277.371 6.18319 276.407 5.75647 275.391 5.70493L275.188 5.70004C273.437 5.70004 271.984 6.62659 271.379 8.10629V8.10727C271.307 8.28131 271.186 8.43018 271.029 8.53501C270.912 8.61375 270.778 8.66477 270.64 8.6854L270.5 8.69614C270.312 8.69614 270.127 8.63989 269.971 8.53501C269.814 8.43018 269.693 8.28131 269.621 8.10727C269.016 6.62991 267.563 5.70004 265.812 5.70004C264.722 5.70153 263.677 6.13518 262.906 6.9061C262.135 7.67705 261.702 8.72209 261.7 9.81235L261.705 10.0399C261.811 12.3851 263.527 14.641 265.494 16.4666C267.432 18.2654 269.568 19.6044 270.49 20.1483C270.515 20.1266 270.54 20.1024 270.573 20.0711C270.645 20.0024 270.735 19.9225 270.898 19.827L271.111 19.702L271.689 21.4364L271.742 21.5936L271.598 21.6747C271.305 21.8372 271.171 21.9236 271.103 21.9725C271.069 21.9963 271.051 22.0122 271.032 22.0272C271.012 22.0437 270.986 22.0633 270.949 22.0829L270.948 22.0819C270.81 22.1558 270.657 22.1952 270.5 22.1952C270.343 22.1952 270.189 22.1561 270.051 22.0819C269.833 21.9664 267.284 20.5765 264.785 18.3885C262.295 16.2077 259.8 13.1871 259.8 9.81235C259.802 8.21838 260.435 6.68947 261.562 5.56235C262.69 4.43522 264.218 3.80145 265.812 3.79965L266.184 3.80942C267.932 3.90412 269.469 4.66849 270.5 5.91879C271.604 4.58074 273.287 3.79965 275.188 3.79965Z" fill="#FD151B" stroke="#FD151B" stroke-width="0.4"/>
</g>
</g>
</svg>
